<?xml version="1.0" encoding="utf-8"?>
<!-- Generator: Adobe Illustrator 25.2.0, SVG Export Plug-In . SVG Version: 6.00 Build 0)  -->
<svg version="1.1" id="Lager_1" xmlns="http://www.w3.org/2000/svg" xmlns:xlink="http://www.w3.org/1999/xlink" x="0px" y="0px"
	 viewBox="0 0 254.3 250.9" style="enable-background:new 0 0 254.3 250.9;" xml:space="preserve">
<style type="text/css">
	.st0{fill:#343434;}
	.st1{fill:#FCFCFC;}
	.st2{fill:#E3E2E2;}
	.st3{fill:#FFFFFF;}
	.st4{fill:#303030;}
	.st5{fill:#2E2F2F;}
	.st6{fill:#2E2E2E;}
	.st7{fill:#3A3A3A;}
</style>
<g>
	<path class="st0" d="M44.7,170.8c-7.7,4.2-15.3,8.5-23.9,13.2c1.4-4.1,3.8-6.2,6-8.4c2.8-2.8,3.3-5.2,1.4-9.1
		c-13.6-27.9-14.4-56.4-0.1-84C39.6,60.4,58.2,45,81.9,36.7c25.6-9,51.1-8.7,76.4,1.4c16,6.4,29.6,16.2,40.4,29.7
		c1.6,1.9,3,2.1,5.1,1.2c2.9-1.2,5.9-2.1,8.8-3.1c0.1,0,0.3,0.1,0.8,0.4c-4.3,7.1-12.8,10.4-16.8,18.9c5.7-2,10.6-3.8,16.2-5.7
		c-2.8,7.4-11,9.5-13.6,17.1c14.4-4.9,26-14,40.4-19.5c-1.5,3.6-3.6,5.2-5.7,7.1c-5.1,4.6-9.5,10-15,14.2c-2.5,1.9-2.7,4.4-2.1,7.5
		c3.7,21.1,2.2,41.8-8.3,60.7c-13.5,24.1-34.1,40.1-60.7,47.8c-25.2,7.3-50,5.1-73.9-5.5c-7.6-3.4-15.2-7.3-21.2-13.4
		c-2.9-3-5.6-3.1-9.3-1.8c-4.2,1.5-8,3.9-12.5,4.4c-1.3,0.5-2.4,0.6-2.3-1.3c6.6-5.7,13.3-11.3,19.9-17c0-2-1.2-1-2.1-0.8
		c-3.9,0.7-6.9,3.9-11.5,4.1c3.5-4.2,6.7-8,10.8-11C45.8,171.2,45.3,170.9,44.7,170.8z"/>
	<path class="st1" d="M45.8,172c-0.4-0.4-0.7-0.8-1.1-1.1"/>
	<path class="st2" d="M48.6,179.6c-0.7-0.3-1.4-0.5-2.1-0.8"/>
	<path class="st3" d="M123.9,126.6c0-9.8-0.3-19.5,0.1-29.3c0.4-13.3,7.6-20.5,20.7-22c4.3-0.5,8.6-0.4,12.8,0.5
		c10.7,2.3,17.1,9.9,17.2,21.1c0.2,19.9,0.3,39.7,0,59.6c-0.2,15-11.9,23.8-28.4,22.1c-15.1-1.6-22-8.8-22.4-24.2
		C123.6,145.1,123.8,135.9,123.9,126.6C123.8,126.6,123.9,126.6,123.9,126.6z"/>
	<path class="st3" d="M64.4,104.3c0-0.3,0-0.7,0-1c-0.5-2.3-0.7-4.6,0.1-6.9c0.3-1.5,0.7-2.9,1-4.4C67,84.8,70.6,79.3,78,76.9
		c9.4-3,18.7-2.9,27.2,2c6,3.4,8.3,9.6,8.8,16.4c0.3,4,0.1,7.7,0,11.9c-0.1,5.9,3.3,2.7-8.1,3.9c-10,1-8.3,0.8-7.8-4
		c0.3-2.8,0.1-5.6,0-8.4c-0.2-6.1-2.9-9.1-8.1-9.1c-5.3,0-8.3,2.8-8.4,8.8c-0.2,10.8-0.1,21.5-0.1,32.3c0,8-0.1,15.9,0,23.9
		c0.1,6.2,2.5,9.1,7.2,9.5c5.7,0.5,9.1-2.4,9.3-8.3c0.2-4.3,0.2-8.6,0-12.9c-0.1-2.9,1-3.5,3.7-3.6c12.4-0.3,12.4-0.4,12.3,11.8
		c0,3.5,0.1,7-0.5,10.4c-2.7,13.5-13.5,18.4-27.6,17.1c-15.5-1.5-20.3-7.9-21.7-26.4C63.8,136.1,63.8,120.2,64.4,104.3z"/>
	<path class="st4" d="M122.8,104.6c0,15.5,0,31,0,46.4c-0.2,0-0.3,0-0.5,0c0-15.5,0-31,0-46.5C122.5,104.6,122.6,104.6,122.8,104.6z
		"/>
	<path class="st5" d="M64.4,104.3c0,15.9,0,31.8,0,47.7c-1-0.9-0.9-2.1-0.9-3.2c0-13.7,0-27.5,0-41.2
		C63.6,106.4,63.4,105.2,64.4,104.3z"/>
	<path class="st6" d="M64.5,96.4c0,2.3,0,4.6-0.1,6.9C63.1,101,63,98.7,64.5,96.4z"/>
	<path class="st7" d="M51.6,167.4c-0.1,0.6-0.3,1.2-0.9,0.8c-0.3-0.2-0.6-0.7-0.6-1.1c-0.1-0.5,0.4-0.9,0.9-0.6
		C51.2,166.6,51.4,167.1,51.6,167.4z"/>
	<path class="st0" d="M140.9,126.2c0-9.1-0.1-18.2,0-27.3c0.1-6.3,2.9-9.4,8.3-9.4c5.3,0,8.5,3.2,8.5,9.3c0.1,18.7,0.1,37.4,0,56.1
		c0,6.2-3.2,9.2-8.7,9.1c-5.5-0.1-8.1-3.1-8.2-9.5C140.8,145.1,140.9,135.6,140.9,126.2z"/>
</g>
</svg>
