<?xml version="1.0" encoding="utf-8"?>
<!-- Generator: Adobe Illustrator 25.4.1, SVG Export Plug-In . SVG Version: 6.00 Build 0)  -->
<svg version="1.1" id="Lager_1" xmlns="http://www.w3.org/2000/svg" xmlns:xlink="http://www.w3.org/1999/xlink" x="0px" y="0px"
	 viewBox="0 0 254.3 250.9" style="enable-background:new 0 0 254.3 250.9;" xml:space="preserve">
<style type="text/css">
	.st0{fill:#31443B;}
	.st1{fill:#FFFFFF;}
	.st2{fill:#FCFCFC;}
	.st3{fill:#E3E2E2;}
</style>
<g>
	<path class="st0" d="M52.6,168.7c-5.2,2.9-10.4,5.8-15.9,8.8c-2.2,1.2-4.4-1.7-2.6-3.4c0.2-0.2,0.4-0.4,0.6-0.6
		c2.8-2.8,3.3-5.2,1.4-9.1c-13.6-27.9-14.4-56.4-0.1-84c11.5-22.1,30.1-37.5,53.8-45.8c25.6-9,51.1-8.7,76.4,1.4
		c16,6.4,29.6,16.2,40.4,29.7c1.6,1.9,3,2.1,5.1,1.2c2.9-1.2,5.9-2.1,8.8-3.1c0.1,0,0.3,0.1,0.8,0.4c-3.2,5.3-8.7,8.4-13,13.2
		c-1.5,1.7,0.2,4.3,2.3,3.5c1.3-0.5,2.6-0.9,4-1.4c2.2-0.8,3.9,1.9,2.2,3.6c-1.9,1.9-4.1,3.6-5.9,5.5c-1.7,1.7,0.2,4.4,2.4,3.5
		c9-3.9,17.2-9.2,26.1-13.5c2.3-1.1,4.3,1.9,2.4,3.5l0,0c-5.1,4.6-9.5,10-15,14.2c-2.5,1.9-2.7,4.4-2.1,7.5
		c3.7,21.1,2.2,41.8-8.3,60.7c-13.5,24.1-34.1,40.1-60.7,47.8c-25.2,7.3-50,5.1-73.9-5.5c-7.6-3.4-15.2-7.3-21.2-13.4
		c-2.9-3-5.6-3.1-9.3-1.8c-4.1,1.5-7.9,3.8-12.3,4.4c-0.1,0-0.3,0.1-0.4,0.1c-1.2,0.4-2.2,0.4-2.1-1.4c6.6-5.7,13.3-11.3,19.9-17
		c0-2-1.2-1-2.1-0.8c-1.2,0.2-2.3,0.7-3.5,1.2c-2.2,1-4.1-1.7-2.5-3.5c1.6-1.7,3.3-3.3,5.2-4.6C53.7,169.1,53.2,168.8,52.6,168.7z"
		/>
	<path class="st1" d="M53.7,169.9c-0.4-0.4-0.7-0.8-1.1-1.1"/>
	<path class="st2" d="M56.5,177.5c-0.7-0.3-1.4-0.5-2.1-0.8"/>
	<path class="st1" d="M131.8,124.5c0-9.8-0.3-19.5,0.1-29.3c0.4-13.3,7.6-20.5,20.7-22c4.3-0.5,8.6-0.4,12.8,0.5
		c10.7,2.3,17.1,9.9,17.2,21.1c0.2,19.9,0.3,39.7,0,59.6c-0.2,15-11.9,23.8-28.4,22.1c-15.1-1.6-22-8.8-22.4-24.2
		C131.5,143,131.7,133.8,131.8,124.5C131.7,124.5,131.8,124.5,131.8,124.5z"/>
	<path class="st1" d="M72.3,102.4c0-0.5-0.1-1.3-0.1-1.9c-0.4-2.1-0.5-4.2,0.2-6.3c0.3-1.5,0.7-2.9,1-4.4
		c1.5-7.2,5.1-12.7,12.5-15.1c9.4-3,18.7-2.9,27.2,2c6,3.4,8.3,9.6,8.8,16.4c0.3,4,0.1,7.7,0,11.9c-0.1,5.9,3.3,2.7-8.1,3.9
		c-10,1-8.3,0.8-7.8-4c0.3-2.8,0.1-5.6,0-8.4c-0.2-6.1-2.9-9.1-8.1-9.1c-5.3,0-8.3,2.8-8.4,8.8c-0.2,10.8-0.1,21.5-0.1,32.3
		c0,8-0.1,15.9,0,23.9c0.1,6.2,2.5,9.1,7.2,9.5c5.7,0.5,9.1-2.4,9.3-8.3c0.2-4.3,0.2-8.6,0-12.9c-0.1-2.9,1-3.5,3.7-3.6
		c12.4-0.3,12.4-0.4,12.3,11.8c0,3.5,0.1,7-0.5,10.4c-2.7,13.5-13.5,18.4-27.6,17.1c-15.5-1.5-20.3-7.9-21.7-26.4
		C71.7,134.1,71.7,118.2,72.3,102.4z"/>
	<path class="st0" d="M130.7,102.5c0,15.5,0,31,0,46.4c-0.2,0-0.3,0-0.5,0c0-15.5,0-31,0-46.5C130.4,102.5,130.5,102.5,130.7,102.5z
		"/>
	<path class="st0" d="M72.3,102.2c0,15.9,0,31.8,0,47.7c-1-0.9-0.9-2.1-0.9-3.2v-41.1v-0.1C71.5,104.2,71.3,103.1,72.3,102.2z"/>
	<path class="st0" d="M72.4,94.3c0,2.3,0,4.6-0.1,6.9C71,98.9,70.9,96.6,72.4,94.3z"/>
	<path class="st3" d="M59.5,165.3c-0.1,0.6-0.3,1.2-0.9,0.8c-0.3-0.2-0.6-0.7-0.6-1.1c-0.1-0.5,0.4-0.9,0.9-0.6
		C59.1,164.5,59.3,165,59.5,165.3z"/>
	<path class="st0" d="M148.8,124.1c0-9.1-0.1-18.2,0-27.3c0.1-6.3,2.9-9.4,8.3-9.4c5.3,0,8.5,3.2,8.5,9.3c0.1,18.7,0.1,37.4,0,56.1
		c0,6.2-3.2,9.2-8.7,9.1c-5.5-0.1-8.1-3.1-8.2-9.5C148.7,143,148.8,133.5,148.8,124.1z"/>
</g>
</svg>
